<svg width="111" height="15" viewBox="0 0 111 15" fill="none" xmlns="http://www.w3.org/2000/svg">
<path d="M0.036 14L4.95 1.4H8.478L13.32 14H9.972L8.928 10.994H4.32L3.258 14H0.036ZM5.166 8.6H8.1L6.642 4.424L5.166 8.6ZM18.267 14.18C17.427 14.18 16.641 14.084 15.909 13.892C15.177 13.7 14.541 13.418 14.001 13.046L15.279 11.102C15.951 11.45 16.503 11.696 16.935 11.84C17.379 11.972 17.823 12.038 18.267 12.038C18.687 12.038 19.011 11.972 19.239 11.84C19.479 11.696 19.599 11.51 19.599 11.282C19.599 11.102 19.527 10.958 19.383 10.85C19.251 10.742 19.035 10.664 18.735 10.616L16.953 10.292C16.053 10.124 15.369 9.812 14.901 9.356C14.445 8.9 14.217 8.312 14.217 7.592C14.217 6.956 14.373 6.416 14.685 5.972C14.997 5.516 15.441 5.168 16.017 4.928C16.605 4.688 17.301 4.568 18.105 4.568C18.753 4.568 19.395 4.658 20.031 4.838C20.667 5.018 21.285 5.282 21.885 5.63L20.553 7.484C20.085 7.208 19.629 7.01 19.185 6.89C18.753 6.758 18.321 6.692 17.889 6.692C17.541 6.692 17.265 6.746 17.061 6.854C16.869 6.962 16.773 7.118 16.773 7.322C16.773 7.514 16.839 7.658 16.971 7.754C17.115 7.85 17.367 7.928 17.727 7.988L19.473 8.312C20.397 8.48 21.093 8.792 21.561 9.248C22.029 9.704 22.263 10.286 22.263 10.994C22.263 11.594 22.089 12.14 21.741 12.632C21.393 13.112 20.919 13.49 20.319 13.766C19.719 14.042 19.035 14.18 18.267 14.18ZM28.3286 14.18C27.2366 14.18 26.4086 13.928 25.8446 13.424C25.2806 12.92 24.9986 12.176 24.9986 11.192V6.962H23.1986V4.712H24.9986V2.138L27.9146 1.544V4.712H30.3986V6.962H27.9146V10.616C27.9146 11.024 28.0046 11.312 28.1846 11.48C28.3766 11.648 28.6946 11.732 29.1386 11.732C29.3066 11.732 29.4746 11.72 29.6426 11.696C29.8106 11.672 30.0386 11.618 30.3266 11.534V13.892C30.0626 13.976 29.7386 14.042 29.3546 14.09C28.9706 14.15 28.6286 14.18 28.3286 14.18ZM36.3769 14.18C35.4529 14.18 34.6249 13.97 33.8929 13.55C33.1609 13.13 32.5789 12.56 32.1469 11.84C31.7269 11.108 31.5169 10.286 31.5169 9.374C31.5169 8.462 31.7269 7.646 32.1469 6.926C32.5789 6.194 33.1609 5.618 33.8929 5.198C34.6249 4.778 35.4469 4.568 36.3589 4.568C37.2829 4.568 38.1049 4.778 38.8249 5.198C39.5569 5.618 40.1329 6.194 40.5529 6.926C40.9849 7.646 41.2009 8.462 41.2009 9.374C41.2009 10.286 40.9849 11.108 40.5529 11.84C40.1329 12.56 39.5569 13.13 38.8249 13.55C38.1049 13.97 37.2889 14.18 36.3769 14.18ZM36.3589 11.75C36.7549 11.75 37.1029 11.648 37.4029 11.444C37.7029 11.24 37.9369 10.958 38.1049 10.598C38.2729 10.238 38.3569 9.83 38.3569 9.374C38.3569 8.906 38.2729 8.498 38.1049 8.15C37.9369 7.79 37.7029 7.508 37.4029 7.304C37.1029 7.1 36.7549 6.998 36.3589 6.998C35.9749 6.998 35.6269 7.1 35.3149 7.304C35.0149 7.508 34.7809 7.79 34.6129 8.15C34.4449 8.498 34.3609 8.906 34.3609 9.374C34.3609 9.83 34.4449 10.238 34.6129 10.598C34.7809 10.958 35.0149 11.24 35.3149 11.444C35.6269 11.648 35.9749 11.75 36.3589 11.75ZM43.0578 14V1.184L45.9738 0.733999V14H43.0578ZM49.6114 14V6.962H47.6854V4.712H49.6114V3.488C49.6114 2.384 49.9294 1.538 50.5654 0.95C51.2014 0.361999 52.1194 0.0679991 53.3194 0.0679991C53.5714 0.0679991 53.8414 0.0859993 54.1294 0.122C54.4294 0.145999 54.6754 0.187999 54.8674 0.247999V2.642C54.6034 2.594 54.3934 2.564 54.2374 2.552C54.0814 2.54 53.9194 2.534 53.7514 2.534C53.3434 2.534 53.0374 2.618 52.8334 2.786C52.6294 2.942 52.5274 3.194 52.5274 3.542V4.712H54.8674V6.962H52.5274V14H49.6114ZM60.5995 14.18C59.6755 14.18 58.8475 13.97 58.1155 13.55C57.3835 13.13 56.8015 12.56 56.3695 11.84C55.9495 11.108 55.7395 10.286 55.7395 9.374C55.7395 8.462 55.9495 7.646 56.3695 6.926C56.8015 6.194 57.3835 5.618 58.1155 5.198C58.8475 4.778 59.6695 4.568 60.5815 4.568C61.5055 4.568 62.3275 4.778 63.0475 5.198C63.7795 5.618 64.3555 6.194 64.7755 6.926C65.2075 7.646 65.4235 8.462 65.4235 9.374C65.4235 10.286 65.2075 11.108 64.7755 11.84C64.3555 12.56 63.7795 13.13 63.0475 13.55C62.3275 13.97 61.5115 14.18 60.5995 14.18ZM60.5815 11.75C60.9775 11.75 61.3255 11.648 61.6255 11.444C61.9255 11.24 62.1595 10.958 62.3275 10.598C62.4955 10.238 62.5795 9.83 62.5795 9.374C62.5795 8.906 62.4955 8.498 62.3275 8.15C62.1595 7.79 61.9255 7.508 61.6255 7.304C61.3255 7.1 60.9775 6.998 60.5815 6.998C60.1975 6.998 59.8495 7.1 59.5375 7.304C59.2375 7.508 59.0035 7.79 58.8355 8.15C58.6675 8.498 58.5835 8.906 58.5835 9.374C58.5835 9.83 58.6675 10.238 58.8355 10.598C59.0035 10.958 59.2375 11.24 59.5375 11.444C59.8495 11.648 60.1975 11.75 60.5815 11.75ZM68.1152 14.198C67.6712 14.198 67.2872 14.03 66.9632 13.694C66.6392 13.358 66.4772 12.956 66.4772 12.488C66.4772 12.02 66.6392 11.618 66.9632 11.282C67.2872 10.946 67.6712 10.778 68.1152 10.778C68.5712 10.778 68.9552 10.946 69.2672 11.282C69.5912 11.618 69.7532 12.02 69.7532 12.488C69.7532 12.956 69.5912 13.358 69.2672 13.694C68.9552 14.03 68.5712 14.198 68.1152 14.198ZM77.202 14.198C76.266 14.198 75.396 14.036 74.592 13.712C73.788 13.376 73.08 12.914 72.468 12.326C71.868 11.738 71.4 11.048 71.064 10.256C70.728 9.464 70.56 8.612 70.56 7.7C70.56 6.776 70.728 5.924 71.064 5.144C71.4 4.352 71.868 3.662 72.468 3.074C73.08 2.486 73.788 2.03 74.592 1.706C75.396 1.37 76.266 1.202 77.202 1.202C77.874 1.202 78.528 1.304 79.164 1.508C79.812 1.7 80.406 1.982 80.946 2.354C81.498 2.714 81.954 3.146 82.314 3.65L80.226 5.63C79.818 5.066 79.362 4.646 78.858 4.37C78.354 4.094 77.802 3.956 77.202 3.956C76.71 3.956 76.254 4.052 75.834 4.244C75.426 4.424 75.066 4.688 74.754 5.036C74.442 5.372 74.196 5.768 74.016 6.224C73.848 6.668 73.764 7.16 73.764 7.7C73.764 8.24 73.848 8.738 74.016 9.194C74.196 9.638 74.442 10.034 74.754 10.382C75.066 10.718 75.426 10.982 75.834 11.174C76.254 11.354 76.71 11.444 77.202 11.444C77.802 11.444 78.354 11.306 78.858 11.03C79.362 10.742 79.818 10.322 80.226 9.77L82.314 11.75C81.954 12.242 81.498 12.674 80.946 13.046C80.406 13.418 79.812 13.706 79.164 13.91C78.528 14.102 77.874 14.198 77.202 14.198ZM86.6111 14.144C85.9871 14.144 85.4291 14.024 84.9371 13.784C84.4571 13.544 84.0791 13.214 83.8031 12.794C83.5391 12.374 83.4071 11.888 83.4071 11.336C83.4071 10.76 83.5511 10.274 83.8391 9.878C84.1271 9.47 84.5411 9.164 85.0811 8.96C85.6211 8.744 86.2691 8.636 87.0251 8.636C87.3611 8.636 87.7031 8.672 88.0511 8.744C88.3991 8.804 88.7771 8.912 89.1851 9.068V8.312C89.1851 7.856 89.0351 7.52 88.7351 7.304C88.4351 7.076 87.9731 6.962 87.3491 6.962C87.0011 6.962 86.6111 7.016 86.1791 7.124C85.7591 7.22 85.2791 7.382 84.7391 7.61L83.7311 5.576C85.2311 4.904 86.6531 4.568 87.9971 4.568C89.2811 4.568 90.2771 4.874 90.9851 5.486C91.7051 6.098 92.0651 6.956 92.0651 8.06V14H89.1851V13.19C88.7771 13.526 88.3691 13.772 87.9611 13.928C87.5531 14.072 87.1031 14.144 86.6111 14.144ZM86.0891 11.282C86.0891 11.582 86.2151 11.816 86.4671 11.984C86.7191 12.14 87.0671 12.218 87.5111 12.218C87.8231 12.218 88.1171 12.182 88.3931 12.11C88.6691 12.026 88.9331 11.906 89.1851 11.75V10.562C88.9211 10.502 88.6571 10.454 88.3931 10.418C88.1291 10.382 87.8591 10.364 87.5831 10.364C87.1031 10.364 86.7311 10.442 86.4671 10.598C86.2151 10.754 86.0891 10.982 86.0891 11.282ZM95.3672 14V6.962H93.4412V4.712H95.3672V3.488C95.3672 2.384 95.6852 1.538 96.3212 0.95C96.9572 0.361999 97.8752 0.0679991 99.0752 0.0679991C99.3272 0.0679991 99.5972 0.0859993 99.8852 0.122C100.185 0.145999 100.431 0.187999 100.623 0.247999V2.642C100.359 2.594 100.149 2.564 99.9932 2.552C99.8372 2.54 99.6752 2.534 99.5072 2.534C99.0992 2.534 98.7932 2.618 98.5892 2.786C98.3852 2.942 98.2832 3.194 98.2832 3.542V4.712H100.623V6.962H98.2832V14H95.3672ZM106.391 14.18C105.479 14.18 104.651 13.97 103.907 13.55C103.175 13.118 102.587 12.542 102.143 11.822C101.711 11.09 101.495 10.274 101.495 9.374C101.495 8.462 101.699 7.646 102.107 6.926C102.515 6.206 103.073 5.636 103.781 5.216C104.489 4.784 105.287 4.568 106.175 4.568C107.075 4.568 107.867 4.778 108.551 5.198C109.235 5.618 109.769 6.2 110.153 6.944C110.549 7.676 110.747 8.522 110.747 9.482V10.112H104.357C104.453 10.46 104.603 10.766 104.807 11.03C105.011 11.294 105.263 11.498 105.563 11.642C105.863 11.786 106.187 11.858 106.535 11.858C106.919 11.858 107.267 11.792 107.579 11.66C107.903 11.528 108.167 11.336 108.371 11.084L110.297 12.686C109.697 13.214 109.091 13.598 108.479 13.838C107.867 14.066 107.171 14.18 106.391 14.18ZM104.357 8.456H108.047C107.963 8.12 107.831 7.832 107.651 7.592C107.471 7.352 107.255 7.166 107.003 7.034C106.751 6.902 106.469 6.836 106.157 6.836C105.857 6.836 105.581 6.902 105.329 7.034C105.089 7.154 104.885 7.334 104.717 7.574C104.561 7.814 104.441 8.108 104.357 8.456Z" fill="#D87676"/>
</svg>
